<svg width="38" height="38" viewBox="0 0 38 38" fill="none" xmlns="http://www.w3.org/2000/svg">
<rect width="38" height="38" rx="8" fill="#EEE3FF"/>
<path d="M14 13C14 12.4477 13.5523 12 13 12C12.4477 12 12 12.4477 12 13V20.2676C11.4022 20.6134 11 21.2597 11 22C11 22.7403 11.4022 23.3866 12 23.7324V25C12 25.5523 12.4477 26 13 26C13.5523 26 14 25.5523 14 25V23.7324C14.5978 23.3866 15 22.7403 15 22C15 21.2597 14.5978 20.6134 14 20.2676V13Z" fill="#8054C7"/>
<path d="M20 13C20 12.4477 19.5523 12 19 12C18.4477 12 18 12.4477 18 13V14.2676C17.4022 14.6134 17 15.2597 17 16C17 16.7403 17.4022 17.3866 18 17.7324V25C18 25.5523 18.4477 26 19 26C19.5523 26 20 25.5523 20 25V17.7324C20.5978 17.3866 21 16.7403 21 16C21 15.2597 20.5978 14.6134 20 14.2676V13Z" fill="#8054C7"/>
<path d="M25 12C25.5523 12 26 12.4477 26 13V20.2676C26.5978 20.6134 27 21.2597 27 22C27 22.7403 26.5978 23.3866 26 23.7324V25C26 25.5523 25.5523 26 25 26C24.4477 26 24 25.5523 24 25V23.7324C23.4022 23.3866 23 22.7403 23 22C23 21.2597 23.4022 20.6134 24 20.2676V13C24 12.4477 24.4477 12 25 12Z" fill="#8054C7"/>
</svg>
